<?xml version="1.0" encoding="UTF-8"?>
<svg version="1.1" viewBox="0 0 242 44" xmlns="http://www.w3.org/2000/svg">
<title>tania-gaitan-small</title>
<desc>Created with Sketch.</desc>
<g fill="none" fill-rule="evenodd">
<path d="m205 29.492v-0.0032592h-0.066759c-4.0408-0.035852-7.3059-3.2685-7.3059-7.2557 0-4.0089 3.3004-7.2589 7.3727-7.2589 4.0717 0 7.3727 3.25 7.3727 7.2589 0 4.0094-3.301 7.2589-7.3727 7.2589m-49.151 0c-4.0723 0-7.3727-3.2495-7.3727-7.2589 0-4.0089 3.3004-7.2589 7.3727-7.2589 4.0717 0 7.3721 3.25 7.3721 7.2589 0 4.0094-3.3004 7.2589-7.3721 7.2589m-29.491 0c-4.0717 0-7.3721-3.2495-7.3721-7.2589 0-4.0089 3.3004-7.2589 7.3721-7.2589s7.3721 3.25 7.3721 7.2589c0 4.0094-3.3004 7.2589-7.3721 7.2589m110.65-19.351h-14.808v19.348h-4.9153v-19.348c-1.9658 0-3.6568 1.1391-4.4436 2.7807-2.128-1.7394-4.8618-2.7867-7.8439-2.7867-6.7868 0-12.287 5.4169-12.287 12.098 0 2.722 0.91366 5.2338 2.4546 7.2557h-7.3705v-19.345c2.7167 0 4.9186-2.168 4.9186-4.8427h-4.9186v-4.8346c-2.7128 0-4.912 2.1641-4.9142 4.8346-2.7167 0-4.9192 2.168-4.9192 4.8427h4.9186v19.345h-4.9153-0.016v-9.6729h-4.9153v9.6729h-3.5062-1.392v-19.348c-1.9663 0-3.6574 1.1391-4.4441 2.7807-2.1286-1.7394-4.8618-2.7867-7.8439-2.7867-6.7868 0-12.287 5.4169-12.287 12.098 0 2.722 0.9131 5.2338 2.4546 7.2557h-7.3705v-19.348c-1.9658 0-3.6574 1.1391-4.443 2.7807-2.1286-1.7394-4.8623-2.7867-7.8444-2.7867-6.7862 0-12.288 5.4169-12.288 12.098 0 6.682 5.5018 12.098 12.288 12.098 2.7669 0 5.3192-0.9001 7.3721-2.4189v5.6233c0 0.89847-0.73986 1.6275-1.653 1.6275h-18.007c0 2.6715 2.2003 4.8367 4.9137 4.8367h14.81c2.6797 0 4.8519-2.1386 4.8519-4.777v-4.8916h17.203c2.9815 0 5.7153-1.0462 7.8439-2.7861 0.78566 1.6421 2.4761 2.7807 4.4419 2.7807h0.002207 1.392v0.0054321h35.471c2.9815 0 5.7153-1.0462 7.8439-2.7861 0.78566 1.6421 2.4761 2.7807 4.4419 2.7807h0.001655 4.9153 4.9148v-4.8367-14.567h8.1777c0.91255 0 1.653 0.72899 1.653 1.6275v12.944c0 2.6688 2.1975 4.8324 4.9087 4.8324h0.006069v-19.408c0-2.6384-2.1721-4.777-4.8519-4.777" fill="#fff"/>
<path d="m212 5h4.9989c0 2.7616-2.2394 5-5.0017 5h-4.9983c0-2.7616 2.2389-5 5.0011-5" fill="#DFDB00"/>
<path d="m178 15h-5c0-2.7616 2.2384-5 5-5v5z" fill="#DFDB00"/>
<path d="m91.171 29.691c-4.0831 0-7.3923-3.2714-7.3923-7.3079 0-4.0359 3.3092-7.3079 7.3923-7.3079 4.082 0 7.3917 3.272 7.3917 7.3079 0 4.0365-3.3097 7.3079-7.3917 7.3079m-64.067 0c-4.082 0-7.3923-3.2714-7.3923-7.3079 0-4.0359 3.3103-7.3079 7.3923-7.3079 4.0831 0 7.3929 3.272 7.3929 7.3079 0 4.0365-3.3097 7.3079-7.3929 7.3079m71.931-16.682c-2.1342-1.7511-4.8747-2.8055-7.8647-2.8055-6.8048 0-12.32 5.4534-12.32 12.18 0 2.742 0.91664 5.2719 2.4634 7.3079h-7.3923v-9.7426c-2.7217 0-4.9284 2.1815-4.9284 4.8721v4.8705h-4.9278v-14.673c0-2.6562-2.1785-4.8092-4.8653-4.8092h-14.848v19.479h-4.9278v-19.479c-1.971 0-3.6671 1.1468-4.4554 2.7995-2.1337-1.7511-4.8742-2.8055-7.8653-2.8055-6.8043 0-12.32 5.4534-12.32 12.18 0 2.7661 0.93434 5.3156 2.5054 7.3604h-7.4332v-19.534h0.0022128c2.7239 0 4.9323-2.1826 4.9323-4.8754h-4.9345v-4.8645c-2.7195 0-4.924 2.1771-4.9278 4.8645-2.7223 0.0016406-4.9289 2.1837-4.9289 4.8754h4.9284v19.539c0 2.6562 2.1779 4.8092 4.8653 4.8092h17.089c0.074128 0.0010937 0.14826 0.0054687 0.22238 0.0054687 2.9906 0 5.7311-1.0533 7.8647-2.8049 0.78774 1.6532 2.4833 2.7995 4.4537 2.7995h0.0022127 4.9278 4.9284v-19.534h8.1994c0.91498 0 1.6574 0.73391 1.6574 1.6384v13.031c0 2.6868 2.2028 4.865 4.9212 4.865h0.0066383v-0.0010938h26.843c0.087957 0.0021875 0.17426 0.0065625 0.26221 0.0065625 2.99 0 5.7305-1.0538 7.8647-2.8055 0.78885 1.6538 2.4838 2.8 4.4554 2.8v-24.348c-1.9716 0-3.6666 1.1468-4.4554 2.7995" fill="#DFDB00"/>
<path d="m74 15h-5c0-2.7616 2.2384-5 5-5v5z" fill="#fff"/>
</g>
</svg>
